<svg width="12" height="24" viewBox="0 0 12 24" fill="none" xmlns="http://www.w3.org/2000/svg">
<path d="M0.0040545 11.9812C0.0032725 11.5813 0.142701 11.1938 0.398136 10.8859L8.96514 0.618208C9.25597 0.268734 9.67388 0.048962 10.127 0.00724125C10.58 -0.0344795 11.0311 0.105268 11.381 0.39574C11.7309 0.686212 11.951 1.10362 11.9927 1.55613C12.0345 2.00864 11.8946 2.45919 11.6038 2.80866L3.92774 11.9812L11.3296 21.1537C11.472 21.3287 11.5782 21.5302 11.6424 21.7464C11.7065 21.9626 11.7272 22.1893 11.7033 22.4135C11.6795 22.6377 11.6114 22.855 11.5032 23.0529C11.395 23.2508 11.2486 23.4254 11.0726 23.5666C10.8964 23.7233 10.6898 23.842 10.4655 23.9153C10.2413 23.9885 10.0043 24.0147 9.76948 23.9922C9.53463 23.9697 9.30697 23.899 9.10075 23.7846C8.89453 23.6701 8.7142 23.5143 8.57105 23.327L0.295333 13.0593C0.080274 12.7426 -0.0222812 12.363 0.0040545 11.9812Z" fill="#ff9900"/>
</svg>
