<svg width="18" height="18" viewBox="0 0 18 18" fill="none" xmlns="http://www.w3.org/2000/svg">
<path d="M0.776394 6.03536L6.11215 5.2534L8.49738 0.377218C8.56253 0.243711 8.6697 0.135634 8.8021 0.06994C9.13414 -0.0953542 9.53763 0.042391 9.70365 0.377218L12.0889 5.2534L17.4246 6.03536C17.5717 6.05656 17.7062 6.12649 17.8092 6.23245C17.9337 6.36147 18.0023 6.53506 17.9999 6.71507C17.9976 6.89507 17.9244 7.06677 17.7966 7.19242L13.9361 10.9878L14.8482 16.3472C14.8696 16.4718 14.8559 16.6001 14.8087 16.7173C14.7615 16.8345 14.6827 16.9361 14.5811 17.0104C14.4796 17.0848 14.3595 17.129 14.2343 17.138C14.1092 17.1469 13.984 17.1204 13.8731 17.0613L9.10052 14.5311L4.32796 17.0613C4.19767 17.1313 4.04636 17.1546 3.90135 17.1291C3.53569 17.0656 3.28981 16.7159 3.35286 16.3472L4.26492 10.9878L0.404425 7.19242C0.299349 7.08858 0.23 6.95296 0.208984 6.80462C0.152243 6.43377 0.408628 6.09046 0.776394 6.03536Z" fill="#ff9900"/>
</svg>
