<svg width="112" height="124" viewBox="0 0 112 124" fill="none" xmlns="http://www.w3.org/2000/svg">
<rect x="0.5" y="0.5" width="111" height="123" rx="3.5" fill="white" stroke="#C4C4C4"/>
<path d="M0 81H112V120C112 122.209 110.209 124 108 124H4C1.79086 124 0 122.209 0 120V81Z" fill="black"/>
<path d="M31.008 36.2V32.588H37.756V53H33.724V36.2H31.008ZM55.3485 35.976H46.2765V40.764C46.6685 40.2787 47.2285 39.8867 47.9565 39.588C48.6845 39.2707 49.4592 39.112 50.2805 39.112C51.7739 39.112 52.9965 39.4387 53.9485 40.092C54.9005 40.7453 55.5912 41.5853 56.0205 42.612C56.4499 43.62 56.6645 44.7027 56.6645 45.86C56.6645 48.0067 56.0485 49.7333 54.8165 51.04C53.6032 52.3467 51.8672 53 49.6085 53C47.4805 53 45.7819 52.468 44.5125 51.404C43.2432 50.34 42.5245 48.9493 42.3565 47.232H46.1645C46.3325 47.9787 46.7059 48.576 47.2845 49.024C47.8819 49.472 48.6379 49.696 49.5525 49.696C50.6539 49.696 51.4845 49.3507 52.0445 48.66C52.6045 47.9693 52.8845 47.0547 52.8845 45.916C52.8845 44.7587 52.5952 43.8813 52.0165 43.284C51.4565 42.668 50.6259 42.36 49.5245 42.36C48.7405 42.36 48.0872 42.556 47.5645 42.948C47.0419 43.34 46.6685 43.8627 46.4445 44.516H42.6925V32.532H55.3485V35.976ZM59.2001 37.6C59.2001 36.1813 59.6107 35.0707 60.4321 34.268C61.2721 33.4653 62.3454 33.064 63.6521 33.064C64.9587 33.064 66.0227 33.4653 66.8441 34.268C67.6841 35.0707 68.1041 36.1813 68.1041 37.6C68.1041 39.0373 67.6841 40.1573 66.8441 40.96C66.0227 41.7627 64.9587 42.164 63.6521 42.164C62.3454 42.164 61.2721 41.7627 60.4321 40.96C59.6107 40.1573 59.2001 39.0373 59.2001 37.6ZM77.1761 33.4L66.1721 53H62.3641L73.3401 33.4H77.1761ZM63.6241 35.416C62.5974 35.416 62.0841 36.144 62.0841 37.6C62.0841 39.0747 62.5974 39.812 63.6241 39.812C64.1281 39.812 64.5201 39.6347 64.8001 39.28C65.0801 38.9067 65.2201 38.3467 65.2201 37.6C65.2201 36.144 64.6881 35.416 63.6241 35.416ZM71.4921 48.772C71.4921 47.3347 71.9027 46.224 72.7241 45.44C73.5641 44.6373 74.6374 44.236 75.9441 44.236C77.2507 44.236 78.3054 44.6373 79.1081 45.44C79.9294 46.224 80.3401 47.3347 80.3401 48.772C80.3401 50.2093 79.9294 51.3293 79.1081 52.132C78.3054 52.9347 77.2507 53.336 75.9441 53.336C74.6187 53.336 73.5454 52.9347 72.7241 52.132C71.9027 51.3293 71.4921 50.2093 71.4921 48.772ZM75.9161 46.588C74.8521 46.588 74.3201 47.316 74.3201 48.772C74.3201 50.2467 74.8521 50.984 75.9161 50.984C76.9614 50.984 77.4841 50.2467 77.4841 48.772C77.4841 47.316 76.9614 46.588 75.9161 46.588Z" fill="black"/>
<path d="M27.7 103C27.7 101.627 28.0067 100.4 28.62 99.32C29.2467 98.2267 30.0933 97.38 31.16 96.78C32.24 96.1667 33.4467 95.86 34.78 95.86C36.34 95.86 37.7067 96.26 38.88 97.06C40.0533 97.86 40.8733 98.9667 41.34 100.38H38.12C37.8 99.7133 37.3467 99.2133 36.76 98.88C36.1867 98.5467 35.52 98.38 34.76 98.38C33.9467 98.38 33.22 98.5733 32.58 98.96C31.9533 99.3333 31.46 99.8667 31.1 100.56C30.7533 101.253 30.58 102.067 30.58 103C30.58 103.92 30.7533 104.733 31.1 105.44C31.46 106.133 31.9533 106.673 32.58 107.06C33.22 107.433 33.9467 107.62 34.76 107.62C35.52 107.62 36.1867 107.453 36.76 107.12C37.3467 106.773 37.8 106.267 38.12 105.6H41.34C40.8733 107.027 40.0533 108.14 38.88 108.94C37.72 109.727 36.3533 110.12 34.78 110.12C33.4467 110.12 32.24 109.82 31.16 109.22C30.0933 108.607 29.2467 107.76 28.62 106.68C28.0067 105.6 27.7 104.373 27.7 103ZM50.2116 110.14C48.9049 110.14 47.7049 109.833 46.6116 109.22C45.5182 108.607 44.6516 107.76 44.0116 106.68C43.3716 105.587 43.0516 104.353 43.0516 102.98C43.0516 101.62 43.3716 100.4 44.0116 99.32C44.6516 98.2267 45.5182 97.3733 46.6116 96.76C47.7049 96.1467 48.9049 95.84 50.2116 95.84C51.5316 95.84 52.7316 96.1467 53.8116 96.76C54.9049 97.3733 55.7649 98.2267 56.3916 99.32C57.0316 100.4 57.3516 101.62 57.3516 102.98C57.3516 104.353 57.0316 105.587 56.3916 106.68C55.7649 107.76 54.9049 108.607 53.8116 109.22C52.7182 109.833 51.5182 110.14 50.2116 110.14ZM50.2116 107.64C51.0516 107.64 51.7916 107.453 52.4316 107.08C53.0716 106.693 53.5716 106.147 53.9316 105.44C54.2916 104.733 54.4716 103.913 54.4716 102.98C54.4716 102.047 54.2916 101.233 53.9316 100.54C53.5716 99.8333 53.0716 99.2933 52.4316 98.92C51.7916 98.5467 51.0516 98.36 50.2116 98.36C49.3716 98.36 48.6249 98.5467 47.9716 98.92C47.3316 99.2933 46.8316 99.8333 46.4716 100.54C46.1116 101.233 45.9316 102.047 45.9316 102.98C45.9316 103.913 46.1116 104.733 46.4716 105.44C46.8316 106.147 47.3316 106.693 47.9716 107.08C48.6249 107.453 49.3716 107.64 50.2116 107.64ZM64.3147 96.04C65.7814 96.04 67.068 96.3267 68.1747 96.9C69.2947 97.4733 70.1547 98.2933 70.7547 99.36C71.368 100.413 71.6747 101.64 71.6747 103.04C71.6747 104.44 71.368 105.667 70.7547 106.72C70.1547 107.76 69.2947 108.567 68.1747 109.14C67.068 109.713 65.7814 110 64.3147 110H59.4347V96.04H64.3147ZM64.2147 107.62C65.6814 107.62 66.8147 107.22 67.6147 106.42C68.4147 105.62 68.8147 104.493 68.8147 103.04C68.8147 101.587 68.4147 100.453 67.6147 99.64C66.8147 98.8133 65.6814 98.4 64.2147 98.4H62.2347V107.62H64.2147ZM76.5706 98.3V101.8H81.2706V104.02H76.5706V107.72H81.8706V110H73.7706V96.02H81.8706V98.3H76.5706Z" fill="white"/>
</svg>
