<svg width="34" height="32" viewBox="0 0 34 32" fill="none" xmlns="http://www.w3.org/2000/svg">
<path d="M1.07399 11.2681L11.0359 9.80817L15.4892 0.704271C15.6108 0.455012 15.8109 0.25323 16.0581 0.130579C16.678 -0.178028 17.4314 0.0791446 17.7413 0.704271L22.1946 9.80817L32.1565 11.2681C32.4312 11.3077 32.6823 11.4382 32.8745 11.6361C33.1069 11.877 33.235 12.2011 33.2306 12.5371C33.2262 12.8732 33.0896 13.1938 32.851 13.4284L25.6434 20.5144L27.3462 30.5204C27.3861 30.7532 27.3606 30.9926 27.2725 31.2114C27.1844 31.4303 27.0372 31.6199 26.8476 31.7587C26.6581 31.8975 26.4338 31.98 26.2001 31.9968C25.9665 32.0136 25.7328 31.964 25.5257 31.8538L16.6152 27.1297L7.70482 31.8538C7.46156 31.9843 7.17907 32.0278 6.90834 31.9804C6.22564 31.8617 5.76658 31.2088 5.88429 30.5204L7.58712 20.5144L0.379524 13.4284C0.183346 13.2345 0.0538673 12.9813 0.0146332 12.7043C-0.0913048 12.0119 0.387371 11.371 1.07399 11.2681Z" fill="#DFDFDF"/>
</svg>
