<svg width="27" height="27" viewBox="0 0 27 27" fill="none" xmlns="http://www.w3.org/2000/svg">
<path d="M26.1768 7.76409C26.1621 6.65959 25.9553 5.56607 25.5658 4.53245C25.228 3.6606 24.712 2.8688 24.0508 2.20765C23.3897 1.54649 22.5979 1.03052 21.726 0.692702C20.7057 0.309684 19.6278 0.10258 18.5381 0.0802076C17.1352 0.0174999 16.6905 0 13.1292 0C9.56803 0 9.11157 9.77879e-08 7.71888 0.0802076C6.62975 0.102744 5.55233 0.309846 4.53245 0.692702C3.66046 1.03029 2.86854 1.54617 2.20736 2.20736C1.54617 2.86854 1.03029 3.66046 0.692701 4.53245C0.308917 5.55201 0.102262 6.62968 0.0816658 7.71888C0.0189581 9.12324 0 9.56803 0 13.1292C0 16.6905 -1.08653e-08 17.1455 0.0816658 18.5396C0.103541 19.6304 0.309163 20.7067 0.692701 21.7289C1.03085 22.6007 1.54712 23.3923 2.20853 24.0532C2.86994 24.7141 3.66193 25.2298 4.53391 25.5672C5.55099 25.9657 6.6286 26.1876 7.72034 26.2235C9.1247 26.2862 9.56949 26.3051 13.1307 26.3051C16.6919 26.3051 17.1484 26.3051 18.5411 26.2235C19.6306 26.202 20.7086 25.9954 21.7289 25.6124C22.6006 25.2742 23.3922 24.7581 24.0533 24.097C24.7144 23.4359 25.2305 22.6443 25.5687 21.7727C25.9522 20.7519 26.1579 19.6756 26.1797 18.5834C26.2424 17.1805 26.2614 16.7357 26.2614 13.173C26.2585 9.61178 26.2585 9.1597 26.1768 7.76409ZM13.1205 19.8638C9.39595 19.8638 6.37868 16.8465 6.37868 13.122C6.37868 9.39741 9.39595 6.38014 13.1205 6.38014C14.9085 6.38014 16.6233 7.09044 17.8877 8.35477C19.152 9.61911 19.8623 11.3339 19.8623 13.122C19.8623 14.91 19.152 16.6248 17.8877 17.8891C16.6233 19.1535 14.9085 19.8638 13.1205 19.8638ZM20.1306 7.70284C19.9241 7.70303 19.7196 7.6625 19.5288 7.58356C19.338 7.50463 19.1646 7.38884 19.0186 7.24282C18.8726 7.0968 18.7568 6.92342 18.6778 6.7326C18.5989 6.54178 18.5584 6.33727 18.5586 6.13077C18.5586 5.92442 18.5992 5.72009 18.6782 5.52945C18.7571 5.3388 18.8729 5.16558 19.0188 5.01967C19.1647 4.87375 19.3379 4.75801 19.5286 4.67904C19.7192 4.60008 19.9235 4.55943 20.1299 4.55943C20.3363 4.55943 20.5406 4.60008 20.7312 4.67904C20.9219 4.75801 21.0951 4.87375 21.241 5.01967C21.3869 5.16558 21.5027 5.3388 21.5816 5.52945C21.6606 5.72009 21.7012 5.92442 21.7012 6.13077C21.7012 6.99993 20.9983 7.70284 20.1306 7.70284Z" fill="#ff9900"/>
<path d="M13.1208 17.5C15.5394 17.5 17.5001 15.5393 17.5001 13.1207C17.5001 10.7021 15.5394 8.74136 13.1208 8.74136C10.7021 8.74136 8.74146 10.7021 8.74146 13.1207C8.74146 15.5393 10.7021 17.5 13.1208 17.5Z" fill="#ff9900"/>
</svg>
