<svg xmlns="http://www.w3.org/2000/svg" xmlns:xlink="http://www.w3.org/1999/xlink" width="321" zoomAndPan="magnify" viewBox="0 0 240.75 141.750002" height="188" preserveAspectRatio="xMidYMid meet" version="1.0"><defs><g/><clipPath id="id1"><path d="M 14.710938 48.289062 L 70.917969 48.289062 L 70.917969 104.496094 L 14.710938 104.496094 Z M 14.710938 48.289062 " clip-rule="nonzero"/></clipPath><clipPath id="id2"><path d="M 70 51 L 80.425781 51 L 80.425781 102 L 70 102 Z M 70 51 " clip-rule="nonzero"/></clipPath><clipPath id="id3"><path d="M 5.480469 38.566406 L 43 38.566406 L 43 113.449219 L 5.480469 113.449219 Z M 5.480469 38.566406 " clip-rule="nonzero"/></clipPath></defs><g clip-path="url(#id1)"><path fill="#00a2df" d="M 42.816406 48.289062 C 27.292969 48.289062 14.710938 60.871094 14.710938 76.394531 C 14.710938 91.914062 27.292969 104.496094 42.816406 104.496094 C 58.335938 104.496094 70.917969 91.914062 70.917969 76.394531 C 70.917969 60.871094 58.335938 48.289062 42.816406 48.289062 " fill-opacity="1" fill-rule="nonzero"/></g><path fill="#00a2df" d="M 69.371094 78.875 C 67.816406 92.195312 56.601562 102.179688 43.0625 102.179688 C 29.523438 102.179688 18.308594 92.195312 16.753906 78.875 L 14.652344 78.875 C 15.398438 85.75 18.621094 92.101562 23.769531 96.796875 C 29.050781 101.609375 35.902344 104.261719 43.0625 104.261719 C 50.226562 104.261719 57.078125 101.609375 62.355469 96.796875 C 67.503906 92.101562 70.726562 85.75 71.472656 78.875 L 69.371094 78.875 " fill-opacity="1" fill-rule="nonzero"/><path fill="#00a2df" d="M 43.0625 105.765625 C 26.566406 105.765625 13.191406 92.441406 13.191406 76.007812 C 13.191406 59.570312 26.566406 46.246094 43.0625 46.246094 C 59.558594 46.246094 72.933594 59.570312 72.933594 76.007812 C 72.933594 92.441406 59.558594 105.765625 43.0625 105.765625 M 43.0625 45.664062 C 26.242188 45.664062 12.609375 59.25 12.609375 76.007812 C 12.609375 92.761719 26.242188 106.347656 43.0625 106.347656 C 59.882812 106.347656 73.515625 92.761719 73.515625 76.007812 C 73.515625 59.25 59.882812 45.664062 43.0625 45.664062 " fill-opacity="1" fill-rule="nonzero"/><path fill="#00a2df" d="M 43.0625 80.394531 C 40.628906 80.394531 38.660156 78.429688 38.660156 76.007812 C 38.660156 73.582031 40.628906 71.617188 43.0625 71.617188 C 45.496094 71.617188 47.46875 73.582031 47.46875 76.007812 C 47.46875 78.429688 45.496094 80.394531 43.0625 80.394531 " fill-opacity="1" fill-rule="nonzero"/><path fill="#00a2df" d="M 53.804688 86.636719 L 53.5625 86.878906 L 32.320312 65.71875 L 32.5625 65.476562 L 53.804688 86.636719 " fill-opacity="1" fill-rule="nonzero"/><path fill="#00a2df" d="M 33.160156 66.3125 C 32.765625 66.710938 32.121094 66.710938 31.722656 66.3125 C 31.324219 65.917969 31.324219 65.277344 31.722656 64.878906 C 32.121094 64.484375 32.765625 64.484375 33.160156 64.878906 C 33.558594 65.277344 33.558594 65.917969 33.160156 66.3125 " fill-opacity="1" fill-rule="nonzero"/><path fill="#00a2df" d="M 54.402344 87.472656 C 54.003906 87.871094 53.363281 87.871094 52.964844 87.472656 C 52.566406 87.078125 52.566406 86.4375 52.964844 86.039062 C 53.363281 85.644531 54.003906 85.644531 54.402344 86.039062 C 54.800781 86.4375 54.800781 87.078125 54.402344 87.472656 " fill-opacity="1" fill-rule="nonzero"/><path fill="#00bfff" d="M 57.726562 61.601562 C 53.9375 57.914062 48.761719 55.632812 43.058594 55.632812 C 37.359375 55.632812 32.1875 57.910156 28.398438 61.59375 L 25.488281 58.695312 C 29.992188 54.214844 36.207031 51.4375 43.058594 51.4375 C 49.914062 51.4375 56.132812 54.21875 60.636719 58.703125 L 57.726562 61.601562 " fill-opacity="1" fill-rule="nonzero"/><path fill="#00a2df" d="M 43.0625 83.179688 C 39.085938 83.179688 35.859375 79.964844 35.859375 76.003906 C 35.859375 72.039062 39.085938 68.824219 43.0625 68.824219 C 47.042969 68.824219 50.269531 72.039062 50.269531 76.003906 C 50.269531 79.964844 47.042969 83.179688 43.0625 83.179688 Z M 43.0625 68.480469 C 38.894531 68.480469 35.515625 71.847656 35.515625 76.003906 C 35.515625 80.15625 38.894531 83.523438 43.0625 83.523438 C 47.234375 83.523438 50.613281 80.15625 50.613281 76.003906 C 50.613281 71.847656 47.234375 68.480469 43.0625 68.480469 " fill-opacity="1" fill-rule="nonzero"/><path fill="#00a2df" d="M 43.0625 44.835938 C 25.78125 44.835938 11.773438 58.792969 11.773438 76.007812 C 11.773438 76.398438 11.789062 76.789062 11.804688 77.183594 L 13.691406 77.175781 C 13.703125 77.175781 13.710938 77.167969 13.710938 77.15625 L 13.710938 76.597656 C 13.710938 60.179688 27.113281 46.667969 43.589844 46.960938 C 59.53125 47.238281 72.414062 60.25 72.414062 76.203125 L 72.414062 77.164062 L 72.433594 77.183594 L 74.320312 77.183594 C 74.335938 76.792969 74.351562 76.402344 74.351562 76.007812 C 74.351562 58.792969 60.34375 44.835938 43.0625 44.835938 " fill-opacity="1" fill-rule="nonzero"/><g clip-path="url(#id2)"><path fill="#00a2df" d="M 70.855469 51.050781 L 70.320312 51.582031 C 76.167969 58.054688 79.726562 66.613281 79.726562 76.007812 C 79.726562 85.433594 76.140625 94.027344 70.257812 100.503906 C 70.433594 100.679688 70.613281 100.859375 70.789062 101.035156 C 76.777344 94.402344 80.425781 85.628906 80.425781 76.007812 C 80.425781 66.417969 76.804688 57.671875 70.855469 51.050781 " fill-opacity="1" fill-rule="nonzero"/></g><g clip-path="url(#id3)"><path fill="#00a2df" d="M 6.398438 76.007812 C 6.398438 55.871094 22.753906 39.539062 42.953125 39.480469 L 42.953125 38.566406 C 22.246094 38.625 5.480469 55.363281 5.480469 76.007812 C 5.480469 96.648438 22.246094 113.386719 42.953125 113.449219 L 42.953125 112.53125 C 22.753906 112.472656 6.398438 96.144531 6.398438 76.007812 " fill-opacity="1" fill-rule="nonzero"/></g><path fill="#00a2df" d="M 43.0625 91.035156 C 34.730469 91.035156 27.976562 84.308594 27.976562 76.007812 C 27.976562 67.703125 34.730469 60.976562 43.0625 60.976562 C 51.394531 60.976562 58.148438 67.703125 58.148438 76.007812 C 58.148438 84.308594 51.394531 91.035156 43.0625 91.035156 Z M 43.0625 60.683594 C 34.566406 60.683594 27.679688 67.542969 27.679688 76.007812 C 27.679688 84.46875 34.566406 91.332031 43.0625 91.332031 C 51.558594 91.332031 58.445312 84.46875 58.445312 76.007812 C 58.445312 67.542969 51.558594 60.683594 43.0625 60.683594 " fill-opacity="1" fill-rule="nonzero"/><path fill="#00bfff" d="M 43.066406 100.464844 C 36.210938 100.464844 29.992188 97.6875 25.488281 93.199219 L 28.398438 90.300781 C 32.1875 93.988281 37.363281 96.269531 43.066406 96.269531 C 48.765625 96.269531 53.9375 93.992188 57.726562 90.3125 L 60.636719 93.210938 C 56.132812 97.691406 49.917969 100.464844 43.066406 100.464844 " fill-opacity="1" fill-rule="nonzero"/><path fill="#00bfff" d="M 21.765625 76.796875 C 21.328125 76.796875 20.972656 76.441406 20.972656 76.007812 C 20.972656 75.570312 21.328125 75.214844 21.765625 75.214844 C 22.203125 75.214844 22.558594 75.570312 22.558594 76.007812 C 22.558594 76.441406 22.203125 76.796875 21.765625 76.796875 " fill-opacity="1" fill-rule="nonzero"/><path fill="#00bfff" d="M 64.421875 76.796875 C 63.980469 76.796875 63.628906 76.441406 63.628906 76.007812 C 63.628906 75.570312 63.980469 75.214844 64.421875 75.214844 C 64.859375 75.214844 65.214844 75.570312 65.214844 76.007812 C 65.214844 76.441406 64.859375 76.796875 64.421875 76.796875 " fill-opacity="1" fill-rule="nonzero"/><path stroke-linecap="round" transform="matrix(2.252011, 0, 0, 1.744191, 85.121746, 76.291185)" fill="none" stroke-linejoin="miter" d="M 0.499264 0.00102282 L 67.059562 0.00102282 " stroke="#545454" stroke-width="1" stroke-opacity="1" stroke-miterlimit="4"/><g fill="#ffffff" fill-opacity="1"><g transform="translate(25.202304, 86.546098)"><g><path d="M 15.359375 -18.453125 L 15.359375 -14.375 L 10.4375 -14.375 L 10.4375 0 L 5.3125 0 L 5.3125 -14.375 L 0.4375 -14.375 L 0.4375 -18.453125 Z M 15.359375 -18.453125 "/></g></g></g><g fill="#ffffff" fill-opacity="1"><g transform="translate(41.005616, 86.546098)"><g><path d="M 13.25 -12.375 C 12.945312 -12.863281 12.535156 -13.238281 12.015625 -13.5 C 11.503906 -13.757812 10.898438 -13.890625 10.203125 -13.890625 C 8.910156 -13.890625 7.894531 -13.472656 7.15625 -12.640625 C 6.414062 -11.804688 6.046875 -10.679688 6.046875 -9.265625 C 6.046875 -7.679688 6.441406 -6.472656 7.234375 -5.640625 C 8.023438 -4.804688 9.179688 -4.390625 10.703125 -4.390625 C 12.503906 -4.390625 13.785156 -5.203125 14.546875 -6.828125 L 9.390625 -6.828125 L 9.390625 -10.515625 L 18.96875 -10.515625 L 18.96875 -5.546875 C 18.570312 -4.566406 17.984375 -3.648438 17.203125 -2.796875 C 16.429688 -1.941406 15.453125 -1.238281 14.265625 -0.6875 C 13.078125 -0.144531 11.722656 0.125 10.203125 0.125 C 8.359375 0.125 6.722656 -0.269531 5.296875 -1.0625 C 3.878906 -1.851562 2.78125 -2.957031 2 -4.375 C 1.226562 -5.800781 0.84375 -7.429688 0.84375 -9.265625 C 0.84375 -11.078125 1.226562 -12.691406 2 -14.109375 C 2.78125 -15.535156 3.875 -16.644531 5.28125 -17.4375 C 6.695312 -18.238281 8.332031 -18.640625 10.1875 -18.640625 C 12.5 -18.640625 14.414062 -18.078125 15.9375 -16.953125 C 17.457031 -15.835938 18.398438 -14.3125 18.765625 -12.375 Z M 13.25 -12.375 "/></g></g></g><g fill="#13a9f4" fill-opacity="1"><g transform="translate(83.631625, 72.726024)"><g><path d="M 2.9375 0 L 2.9375 -20.21875 L 0.21875 -20.21875 L 0.21875 -23.28125 L 9.09375 -23.28125 L 9.09375 -20.21875 L 6.46875 -20.21875 L 6.46875 0 Z M 2.9375 0 "/></g></g></g><g fill="#13a9f4" fill-opacity="1"><g transform="translate(92.92888, 72.726024)"><g><path d="M 8.65625 -20.078125 C 8.6875 -20.078125 8.703125 -19.335938 8.703125 -17.859375 L 8.6875 -17.125 C 7.988281 -17.125 7.296875 -17.003906 6.609375 -16.765625 C 5.929688 -16.523438 5.488281 -16.1875 5.28125 -15.75 L 5.28125 0 L 1.75 0 L 1.75 -19.84375 L 5.28125 -19.84375 L 5.28125 -17.640625 C 5.507812 -18.410156 5.910156 -19.007812 6.484375 -19.4375 C 7.066406 -19.863281 7.789062 -20.078125 8.65625 -20.078125 Z M 8.65625 -20.078125 "/></g></g></g><g fill="#13a9f4" fill-opacity="1"><g transform="translate(102.027758, 72.726024)"><g><path d="M 7.8125 -10.765625 C 6.707031 -10.273438 5.957031 -9.804688 5.5625 -9.359375 C 5.175781 -8.921875 4.984375 -8.238281 4.984375 -7.3125 L 4.984375 -5.1875 C 4.984375 -4.257812 5.078125 -3.59375 5.265625 -3.1875 C 5.460938 -2.789062 5.78125 -2.59375 6.21875 -2.59375 C 6.65625 -2.59375 7.015625 -2.738281 7.296875 -3.03125 C 7.578125 -3.332031 7.75 -3.664062 7.8125 -4.03125 Z M 5.046875 0.203125 C 3.753906 0.203125 2.828125 -0.257812 2.265625 -1.1875 C 1.710938 -2.125 1.429688 -3.46875 1.421875 -5.21875 L 1.421875 -6.484375 C 1.421875 -8.171875 1.878906 -9.453125 2.796875 -10.328125 C 3.378906 -10.898438 4.378906 -11.457031 5.796875 -12 C 6.046875 -12.09375 6.398438 -12.222656 6.859375 -12.390625 C 7.316406 -12.554688 7.632812 -12.675781 7.8125 -12.75 L 7.8125 -14.484375 C 7.8125 -15.554688 7.734375 -16.285156 7.578125 -16.671875 C 7.429688 -17.054688 7.082031 -17.25 6.53125 -17.25 C 5.976562 -17.25 5.609375 -17.046875 5.421875 -16.640625 C 5.234375 -16.234375 5.140625 -15.550781 5.140625 -14.59375 L 5.140625 -13.703125 L 1.6875 -13.703125 L 1.6875 -14.296875 C 1.6875 -16.179688 2.035156 -17.613281 2.734375 -18.59375 C 3.429688 -19.582031 4.671875 -20.078125 6.453125 -20.078125 C 8.242188 -20.078125 9.515625 -19.582031 10.265625 -18.59375 C 11.023438 -17.613281 11.40625 -16.132812 11.40625 -14.15625 L 11.40625 0 L 7.875 0 L 7.875 -1.96875 C 7.695312 -1.363281 7.359375 -0.847656 6.859375 -0.421875 C 6.359375 -0.00390625 5.753906 0.203125 5.046875 0.203125 Z M 5.046875 0.203125 "/></g></g></g><g fill="#13a9f4" fill-opacity="1"><g transform="translate(115.001596, 72.726024)"><g><path d="M 3.375 0 L 0.5 -19.84375 L 3.8125 -19.84375 L 5.09375 -9.28125 L 5.53125 -4.53125 L 5.796875 -4.53125 L 6.171875 -9.296875 L 7.265625 -19.84375 L 10.546875 -19.84375 L 7.671875 0 Z M 3.375 0 "/></g></g></g><g fill="#13a9f4" fill-opacity="1"><g transform="translate(126.031341, 72.726024)"><g><path d="M 6.375 0.234375 C 4.144531 0.234375 2.707031 -0.613281 2.0625 -2.3125 C 1.65625 -3.394531 1.453125 -4.820312 1.453125 -6.59375 L 1.453125 -14 C 1.453125 -18.050781 3.140625 -20.078125 6.515625 -20.078125 C 8.316406 -20.078125 9.5625 -19.539062 10.25 -18.46875 C 10.945312 -17.40625 11.296875 -15.894531 11.296875 -13.9375 L 11.296875 -9.6875 L 4.984375 -9.6875 L 4.984375 -5.78125 C 4.984375 -4.40625 5.101562 -3.53125 5.34375 -3.15625 C 5.582031 -2.78125 5.9375 -2.59375 6.40625 -2.59375 C 6.882812 -2.59375 7.195312 -2.703125 7.34375 -2.921875 C 7.582031 -3.304688 7.71875 -3.703125 7.75 -4.109375 C 7.789062 -4.515625 7.8125 -5.070312 7.8125 -5.78125 L 7.8125 -7.53125 L 11.265625 -7.53125 L 11.265625 -6.46875 C 11.265625 -4.664062 11.125 -3.375 10.84375 -2.59375 C 10.5625 -1.8125 10.238281 -1.242188 9.875 -0.890625 C 9.09375 -0.140625 7.925781 0.234375 6.375 0.234375 Z M 4.96875 -11.734375 L 7.8125 -11.734375 L 7.8125 -14.28125 C 7.8125 -15.363281 7.722656 -16.140625 7.546875 -16.609375 C 7.378906 -17.078125 7.03125 -17.3125 6.5 -17.3125 C 6.488281 -17.3125 6.484375 -17.3125 6.484375 -17.3125 C 5.566406 -17.3125 5.070312 -16.613281 5 -15.21875 C 4.976562 -14.945312 4.96875 -14.601562 4.96875 -14.1875 Z M 4.96875 -11.734375 "/></g></g></g><g fill="#13a9f4" fill-opacity="1"><g transform="translate(138.701001, 72.726024)"><g><path d="M 1.78125 0 L 1.78125 -23.484375 L 5.28125 -23.484375 L 5.28125 0 Z M 1.78125 0 "/></g></g></g><g fill="#13a9f4" fill-opacity="1"><g transform="translate(145.763212, 72.726024)"><g><path d="M 1.78125 0 L 1.78125 -23.484375 L 5.28125 -23.484375 L 5.28125 0 Z M 1.78125 0 "/></g></g></g><g fill="#13a9f4" fill-opacity="1"><g transform="translate(152.825423, 72.726024)"><g><path d="M 6.375 0.234375 C 4.144531 0.234375 2.707031 -0.613281 2.0625 -2.3125 C 1.65625 -3.394531 1.453125 -4.820312 1.453125 -6.59375 L 1.453125 -14 C 1.453125 -18.050781 3.140625 -20.078125 6.515625 -20.078125 C 8.316406 -20.078125 9.5625 -19.539062 10.25 -18.46875 C 10.945312 -17.40625 11.296875 -15.894531 11.296875 -13.9375 L 11.296875 -9.6875 L 4.984375 -9.6875 L 4.984375 -5.78125 C 4.984375 -4.40625 5.101562 -3.53125 5.34375 -3.15625 C 5.582031 -2.78125 5.9375 -2.59375 6.40625 -2.59375 C 6.882812 -2.59375 7.195312 -2.703125 7.34375 -2.921875 C 7.582031 -3.304688 7.71875 -3.703125 7.75 -4.109375 C 7.789062 -4.515625 7.8125 -5.070312 7.8125 -5.78125 L 7.8125 -7.53125 L 11.265625 -7.53125 L 11.265625 -6.46875 C 11.265625 -4.664062 11.125 -3.375 10.84375 -2.59375 C 10.5625 -1.8125 10.238281 -1.242188 9.875 -0.890625 C 9.09375 -0.140625 7.925781 0.234375 6.375 0.234375 Z M 4.96875 -11.734375 L 7.8125 -11.734375 L 7.8125 -14.28125 C 7.8125 -15.363281 7.722656 -16.140625 7.546875 -16.609375 C 7.378906 -17.078125 7.03125 -17.3125 6.5 -17.3125 C 6.488281 -17.3125 6.484375 -17.3125 6.484375 -17.3125 C 5.566406 -17.3125 5.070312 -16.613281 5 -15.21875 C 4.976562 -14.945312 4.96875 -14.601562 4.96875 -14.1875 Z M 4.96875 -11.734375 "/></g></g></g><g fill="#13a9f4" fill-opacity="1"><g transform="translate(165.495083, 72.726024)"><g><path d="M 8.65625 -20.078125 C 8.6875 -20.078125 8.703125 -19.335938 8.703125 -17.859375 L 8.6875 -17.125 C 7.988281 -17.125 7.296875 -17.003906 6.609375 -16.765625 C 5.929688 -16.523438 5.488281 -16.1875 5.28125 -15.75 L 5.28125 0 L 1.75 0 L 1.75 -19.84375 L 5.28125 -19.84375 L 5.28125 -17.640625 C 5.507812 -18.410156 5.910156 -19.007812 6.484375 -19.4375 C 7.066406 -19.863281 7.789062 -20.078125 8.65625 -20.078125 Z M 8.65625 -20.078125 "/></g></g></g><g fill="#13a9f4" fill-opacity="1"><g transform="translate(174.593961, 72.726024)"><g/></g></g><g fill="#13a9f4" fill-opacity="1"><g transform="translate(179.447578, 72.726024)"><g><path d="M 11.4375 -2.453125 C 11.4375 -0.753906 11.023438 0.570312 10.203125 1.53125 C 9.378906 2.5 7.984375 2.984375 6.015625 2.984375 C 4.054688 2.984375 2.492188 2.507812 1.328125 1.5625 L 2.546875 -0.640625 C 3.597656 0.0234375 4.578125 0.359375 5.484375 0.359375 C 6.398438 0.359375 7.035156 0.128906 7.390625 -0.328125 C 7.753906 -0.785156 7.9375 -1.40625 7.9375 -2.1875 L 7.9375 -3.75 C 7.71875 -3.113281 7.378906 -2.664062 6.921875 -2.40625 C 6.472656 -2.15625 5.894531 -2.03125 5.1875 -2.03125 C 3.800781 -2.03125 2.84375 -2.546875 2.3125 -3.578125 C 1.78125 -4.609375 1.515625 -5.984375 1.515625 -7.703125 L 1.515625 -14.09375 C 1.515625 -18.082031 2.765625 -20.078125 5.265625 -20.078125 C 5.285156 -20.078125 5.300781 -20.078125 5.3125 -20.078125 C 6.6875 -20.078125 7.5625 -19.410156 7.9375 -18.078125 L 7.9375 -19.84375 L 11.4375 -19.84375 Z M 5.046875 -7.859375 C 5.046875 -6.773438 5.144531 -5.972656 5.34375 -5.453125 C 5.550781 -4.941406 5.925781 -4.6875 6.46875 -4.6875 C 7.019531 -4.6875 7.398438 -4.914062 7.609375 -5.375 C 7.828125 -5.84375 7.9375 -6.679688 7.9375 -7.890625 L 7.9375 -14.375 C 7.9375 -15.300781 7.820312 -16.007812 7.59375 -16.5 C 7.375 -17 6.976562 -17.25 6.40625 -17.25 C 5.832031 -17.25 5.460938 -16.992188 5.296875 -16.484375 C 5.128906 -15.984375 5.046875 -15.285156 5.046875 -14.390625 Z M 5.046875 -7.859375 "/></g></g></g><g fill="#13a9f4" fill-opacity="1"><g transform="translate(192.540441, 72.726024)"><g><path d="M 6.421875 -2.59375 C 6.972656 -2.59375 7.347656 -2.832031 7.546875 -3.3125 C 7.742188 -3.789062 7.84375 -4.507812 7.84375 -5.46875 L 7.84375 -14.34375 C 7.84375 -15.3125 7.738281 -16.035156 7.53125 -16.515625 C 7.332031 -17.003906 6.957031 -17.25 6.40625 -17.25 C 5.863281 -17.25 5.488281 -17.007812 5.28125 -16.53125 C 5.082031 -16.050781 4.984375 -15.320312 4.984375 -14.34375 L 4.984375 -5.46875 C 4.984375 -4.007812 5.222656 -3.117188 5.703125 -2.796875 C 5.898438 -2.660156 6.140625 -2.59375 6.421875 -2.59375 Z M 6.421875 0.234375 C 4.554688 0.234375 3.257812 -0.320312 2.53125 -1.4375 C 1.8125 -2.5625 1.453125 -4.179688 1.453125 -6.296875 L 1.453125 -13.71875 C 1.453125 -17.957031 3.101562 -20.078125 6.40625 -20.078125 C 9.71875 -20.078125 11.375 -17.957031 11.375 -13.71875 L 11.375 -6.296875 C 11.375 -2.992188 10.523438 -0.960938 8.828125 -0.203125 C 8.171875 0.0859375 7.367188 0.234375 6.421875 0.234375 Z M 6.421875 0.234375 "/></g></g></g><g fill="#13a9f4" fill-opacity="1"><g transform="translate(205.368802, 72.726024)"><g><path d="M 7.8125 -10.765625 C 6.707031 -10.273438 5.957031 -9.804688 5.5625 -9.359375 C 5.175781 -8.921875 4.984375 -8.238281 4.984375 -7.3125 L 4.984375 -5.1875 C 4.984375 -4.257812 5.078125 -3.59375 5.265625 -3.1875 C 5.460938 -2.789062 5.78125 -2.59375 6.21875 -2.59375 C 6.65625 -2.59375 7.015625 -2.738281 7.296875 -3.03125 C 7.578125 -3.332031 7.75 -3.664062 7.8125 -4.03125 Z M 5.046875 0.203125 C 3.753906 0.203125 2.828125 -0.257812 2.265625 -1.1875 C 1.710938 -2.125 1.429688 -3.46875 1.421875 -5.21875 L 1.421875 -6.484375 C 1.421875 -8.171875 1.878906 -9.453125 2.796875 -10.328125 C 3.378906 -10.898438 4.378906 -11.457031 5.796875 -12 C 6.046875 -12.09375 6.398438 -12.222656 6.859375 -12.390625 C 7.316406 -12.554688 7.632812 -12.675781 7.8125 -12.75 L 7.8125 -14.484375 C 7.8125 -15.554688 7.734375 -16.285156 7.578125 -16.671875 C 7.429688 -17.054688 7.082031 -17.25 6.53125 -17.25 C 5.976562 -17.25 5.609375 -17.046875 5.421875 -16.640625 C 5.234375 -16.234375 5.140625 -15.550781 5.140625 -14.59375 L 5.140625 -13.703125 L 1.6875 -13.703125 L 1.6875 -14.296875 C 1.6875 -16.179688 2.035156 -17.613281 2.734375 -18.59375 C 3.429688 -19.582031 4.671875 -20.078125 6.453125 -20.078125 C 8.242188 -20.078125 9.515625 -19.582031 10.265625 -18.59375 C 11.023438 -17.613281 11.40625 -16.132812 11.40625 -14.15625 L 11.40625 0 L 7.875 0 L 7.875 -1.96875 C 7.695312 -1.363281 7.359375 -0.847656 6.859375 -0.421875 C 6.359375 -0.00390625 5.753906 0.203125 5.046875 0.203125 Z M 5.046875 0.203125 "/></g></g></g><g fill="#13a9f4" fill-opacity="1"><g transform="translate(218.34264, 72.726024)"><g><path d="M 1.78125 0 L 1.78125 -23.484375 L 5.28125 -23.484375 L 5.28125 0 Z M 1.78125 0 "/></g></g></g><g fill="#13a9f4" fill-opacity="1"><g transform="translate(225.404851, 72.726024)"><g><path d="M 1.078125 -15.21875 C 1.078125 -18.457031 2.640625 -20.078125 5.765625 -20.078125 C 7.316406 -20.078125 8.453125 -19.632812 9.171875 -18.75 C 9.890625 -17.863281 10.25 -16.390625 10.25 -14.328125 L 10.25 -13.25 L 7.125 -13.25 L 7.125 -14.546875 C 7.125 -15.453125 7.019531 -16.125 6.8125 -16.5625 C 6.613281 -17 6.273438 -17.21875 5.796875 -17.21875 C 5.328125 -17.21875 4.976562 -17.078125 4.75 -16.796875 C 4.53125 -16.523438 4.421875 -16.0625 4.421875 -15.40625 C 4.421875 -14.351562 4.890625 -13.375 5.828125 -12.46875 L 7.703125 -10.765625 C 9.628906 -8.960938 10.59375 -6.984375 10.59375 -4.828125 C 10.59375 -3.128906 10.207031 -1.859375 9.4375 -1.015625 C 8.675781 -0.171875 7.488281 0.25 5.875 0.25 C 4.257812 0.25 3.066406 -0.207031 2.296875 -1.125 C 1.535156 -2.050781 1.15625 -3.53125 1.15625 -5.5625 L 1.15625 -6.859375 L 4.4375 -6.859375 L 4.4375 -5.25 C 4.4375 -3.488281 4.890625 -2.609375 5.796875 -2.609375 C 6.273438 -2.609375 6.617188 -2.765625 6.828125 -3.078125 C 7.035156 -3.390625 7.140625 -3.921875 7.140625 -4.671875 C 7.140625 -5.992188 6.53125 -7.21875 5.3125 -8.34375 C 5.28125 -8.382812 5 -8.640625 4.46875 -9.109375 C 3.9375 -9.585938 3.625 -9.875 3.53125 -9.96875 C 1.894531 -11.457031 1.078125 -13.207031 1.078125 -15.21875 Z M 1.078125 -15.21875 "/></g></g></g></svg>