<svg width="22" height="22" viewBox="0 0 22 22" fill="none" xmlns="http://www.w3.org/2000/svg">
<path fill-rule="evenodd" clip-rule="evenodd" d="M5.86704 2.00047C6.75153 1.92985 7.5912 1.58195 8.26645 1.00632C9.02913 0.356751 9.99819 0 11 0C12.0018 0 12.9709 0.356751 13.7335 1.00632C14.4088 1.58195 15.2485 1.92985 16.133 2.00047C17.1318 2.0803 18.0696 2.5133 18.7781 3.22185C19.4867 3.93041 19.9197 4.86818 19.9995 5.86704C20.0697 6.75118 20.4175 7.59132 20.9937 8.26645C21.6432 9.02913 22 9.99819 22 11C22 12.0018 21.6432 12.9709 20.9937 13.7335C20.418 14.4088 20.0702 15.2485 19.9995 16.133C19.9197 17.1318 19.4867 18.0696 18.7781 18.7781C18.0696 19.4867 17.1318 19.9197 16.133 19.9995C15.2485 20.0702 14.4088 20.418 13.7335 20.9937C12.9709 21.6432 12.0018 22 11 22C9.99819 22 9.02913 21.6432 8.26645 20.9937C7.5912 20.418 6.75153 20.0702 5.86704 19.9995C4.86818 19.9197 3.93041 19.4867 3.22185 18.7781C2.5133 18.0696 2.0803 17.1318 2.00047 16.133C1.92985 15.2485 1.58195 14.4088 1.00632 13.7335C0.356751 12.9709 0 12.0018 0 11C0 9.99819 0.356751 9.02913 1.00632 8.26645C1.58195 7.5912 1.92985 6.75153 2.00047 5.86704C2.0803 4.86818 2.5133 3.93041 3.22185 3.22185C3.93041 2.5133 4.86818 2.0803 5.86704 2.00047ZM16.0972 9.22209C16.3477 8.96276 16.4863 8.61543 16.4831 8.2549C16.48 7.89437 16.3354 7.5495 16.0805 7.29456C15.8255 7.03962 15.4807 6.89501 15.1201 6.89188C14.7596 6.88874 14.4123 7.02734 14.1529 7.27781L9.62498 11.8058L7.84707 10.0279C7.58774 9.77739 7.2404 9.63879 6.87988 9.64193C6.51935 9.64506 6.17448 9.78967 5.91954 10.0446C5.6646 10.2995 5.51998 10.6444 5.51685 11.0049C5.51372 11.3655 5.65231 11.7128 5.90279 11.9721L8.65283 14.7222C8.91069 14.98 9.26037 15.1248 9.62498 15.1248C9.98958 15.1248 10.3393 14.98 10.5971 14.7222L16.0972 9.22209Z" fill="#34A853"/>
</svg>
