<svg width="28" height="28" viewBox="0 0 28 28" fill="none" xmlns="http://www.w3.org/2000/svg">
<path d="M0.00561873 28L1.89842 21.0448C0.651211 18.9068 -0.00404688 16.4752 1.88051e-05 14C1.88051e-05 6.2678 6.26781 0 14 0C21.7322 0 28 6.2678 28 14C28 21.7322 21.7322 28 14 28C11.5259 28.004 9.09533 27.3492 6.95801 26.103L0.00561873 28ZM8.94741 7.43119C8.76662 7.44242 8.58996 7.49004 8.42801 7.57119C8.27614 7.6572 8.13751 7.76471 8.01641 7.89039C7.84841 8.04859 7.75321 8.18579 7.65101 8.31879C7.13359 8.99219 6.85527 9.81878 6.86001 10.668C6.86281 11.354 7.04201 12.0218 7.32201 12.6462C7.89461 13.909 8.83681 15.246 10.0814 16.485C10.381 16.7832 10.6736 17.0828 10.9886 17.3614C12.5334 18.7214 14.3742 19.7022 16.3646 20.2258L17.1612 20.3476C17.4202 20.3616 17.6792 20.342 17.9396 20.3294C18.3473 20.3083 18.7455 20.1979 19.1058 20.006C19.2891 19.9116 19.4681 19.8088 19.642 19.698C19.642 19.698 19.7022 19.6588 19.817 19.572C20.006 19.432 20.1222 19.3326 20.279 19.1688C20.3952 19.0484 20.496 18.907 20.573 18.746C20.6822 18.5178 20.7914 18.0824 20.8362 17.7198C20.8698 17.4426 20.86 17.2914 20.8558 17.1976C20.8502 17.0478 20.7256 16.8924 20.5898 16.8266L19.775 16.4612C19.775 16.4612 18.557 15.9306 17.8136 15.5918C17.7352 15.5576 17.6512 15.5382 17.5658 15.5344C17.47 15.5246 17.3732 15.5353 17.282 15.566C17.1907 15.5967 17.107 15.6465 17.0366 15.7122V15.7094C17.0296 15.7094 16.9358 15.7892 15.9236 17.0156C15.8655 17.0937 15.7855 17.1527 15.6937 17.1851C15.602 17.2175 15.5026 17.2218 15.4084 17.1976C15.3172 17.1732 15.2278 17.1423 15.141 17.1052C14.9674 17.0324 14.9072 17.0044 14.7882 16.9526L14.7812 16.9498C13.9803 16.6001 13.2387 16.1278 12.5832 15.5498C12.4068 15.3958 12.243 15.2278 12.075 15.0654C11.5242 14.5379 11.0442 13.9412 10.647 13.2902L10.5644 13.1572C10.5051 13.0678 10.4571 12.9714 10.4216 12.8702C10.3684 12.6644 10.507 12.4992 10.507 12.4992C10.507 12.4992 10.8472 12.1268 11.0054 11.9252C11.1371 11.7576 11.26 11.5833 11.3736 11.403C11.5388 11.137 11.5906 10.864 11.5038 10.6526C11.1118 9.69499 10.7058 8.74159 10.2886 7.79519C10.206 7.60759 9.96101 7.47319 9.73841 7.44659C9.66281 7.43819 9.58721 7.42979 9.51161 7.42419C9.3236 7.41485 9.1352 7.41672 8.94741 7.4298V7.43119Z" fill="#ff9900"/>
</svg>
