<svg width="25" height="24" viewBox="0 0 25 24" fill="none" xmlns="http://www.w3.org/2000/svg">
<path d="M0.785164 8.23469L8.06531 7.16777L11.3197 0.514678C11.4086 0.332521 11.5548 0.18506 11.7355 0.0954266C12.1885 -0.130102 12.739 0.0578385 12.9656 0.514678L16.22 7.16777L23.5001 8.23469C23.7008 8.2636 23.8843 8.35902 24.0248 8.50359C24.1947 8.67963 24.2883 8.91648 24.2851 9.16208C24.2818 9.40768 24.1821 9.64194 24.0076 9.81339L18.7404 14.9919L19.9848 22.3042C20.014 22.4743 19.9953 22.6492 19.9309 22.8092C19.8665 22.9691 19.7589 23.1077 19.6204 23.2091C19.4819 23.3106 19.318 23.3708 19.1472 23.3831C18.9765 23.3954 18.8057 23.3592 18.6543 23.2786L12.1426 19.8263L5.63095 23.2786C5.45317 23.374 5.24672 23.4058 5.04888 23.3711C4.54996 23.2844 4.21449 22.8073 4.3005 22.3042L5.54493 14.9919L0.277647 9.81339C0.134279 9.67171 0.0396595 9.48666 0.0109844 9.28426C-0.066433 8.77827 0.283381 8.30986 0.785164 8.23469Z" fill="#FFBD00"/>
</svg>
